
<svg width="251px" height="41px" viewBox="0 0 251 41" version="1.1" xmlns="http://www.w3.org/2000/svg" xmlns:xlink="http://www.w3.org/1999/xlink">
    <!-- Generator: Sketch 44.1 (41455) - http://www.bohemiancoding.com/sketch -->
    <desc>Created with Sketch.</desc>
    <defs></defs>
    <g id="Page-1" stroke="none" stroke-width="1" fill="none" fill-rule="evenodd">
        <g id="Desktop-HD" transform="translate(-171.000000, -152.000000)" fill="#000000">
            <path d="M176.070312,170 L176.070312,160.390625 L176.292969,160.390625 L183.359375,170 L186.769531,170 L186.769531,153.089844 L182.691406,153.089844 L182.691406,162.605469 L182.46875,162.605469 L175.425781,153.089844 L171.992188,153.089844 L171.992188,170 L176.070312,170 Z M198.300781,152.632812 C203.386719,152.632812 206.621094,156.042969 206.621094,161.539062 C206.621094,167.046875 203.386719,170.457031 198.300781,170.457031 C193.191406,170.457031 189.957031,167.046875 189.957031,161.539062 C189.957031,156.042969 193.226562,152.632812 198.300781,152.632812 Z M198.300781,156.195312 C195.921875,156.195312 194.339844,158.28125 194.339844,161.539062 C194.339844,164.808594 195.898438,166.894531 198.300781,166.894531 C200.679688,166.894531 202.25,164.808594 202.25,161.539062 C202.25,158.28125 200.667969,156.195312 198.300781,156.195312 Z M218.046875,170 L218.046875,156.546875 L222.933594,156.546875 L222.933594,153.089844 L208.882812,153.089844 L208.882812,156.546875 L213.757812,156.546875 L213.757812,170 L218.046875,170 Z M231.136719,165.183594 C231.207031,168.441406 233.902344,170.457031 238.179688,170.457031 C242.609375,170.457031 245.304688,168.324219 245.304688,164.796875 C245.304688,162.113281 243.804688,160.601562 240.464844,159.957031 L238.285156,159.535156 C236.503906,159.183594 235.753906,158.644531 235.753906,157.71875 C235.753906,156.59375 236.75,155.878906 238.261719,155.878906 C239.773438,155.878906 240.910156,156.710938 241.003906,157.90625 L244.976562,157.90625 C244.90625,154.777344 242.164062,152.632812 238.203125,152.632812 C234.125,152.632812 231.476562,154.800781 231.476562,158.105469 C231.476562,160.765625 233.070312,162.453125 236.164062,163.039062 L238.390625,163.484375 C240.324219,163.871094 241.0625,164.375 241.0625,165.3125 C241.0625,166.425781 239.960938,167.199219 238.355469,167.199219 C236.574219,167.199219 235.34375,166.414062 235.238281,165.183594 L231.136719,165.183594 Z M252.863281,153.089844 L248.5625,153.089844 L248.5625,164.164062 C248.5625,167.960938 251.457031,170.457031 255.851562,170.457031 C260.246094,170.457031 263.128906,167.960938 263.128906,164.164062 L263.128906,153.089844 L258.828125,153.089844 L258.828125,163.707031 C258.828125,165.675781 257.761719,166.835938 255.851562,166.835938 C253.941406,166.835938 252.863281,165.675781 252.863281,163.707031 L252.863281,153.089844 Z M271.425781,156.335938 L271.425781,161.046875 L273.96875,161.046875 C275.550781,161.046875 276.488281,160.167969 276.488281,158.703125 C276.488281,157.261719 275.492188,156.335938 273.957031,156.335938 L271.425781,156.335938 Z M271.425781,164.082031 L271.425781,170 L267.125,170 L267.125,153.089844 L274.566406,153.089844 C278.515625,153.089844 280.882812,155.175781 280.882812,158.667969 C280.882812,160.742188 279.851562,162.640625 278,163.449219 L281.375,170 L276.546875,170 L273.652344,164.082031 L271.425781,164.082031 Z M295.894531,166.542969 L288.605469,166.542969 L288.605469,163.085938 L295.460938,163.085938 L295.460938,159.921875 L288.605469,159.921875 L288.605469,156.546875 L295.894531,156.546875 L295.894531,153.089844 L284.304688,153.089844 L284.304688,170 L295.894531,170 L295.894531,166.542969 Z M315.710938,159.640625 L315.921875,159.640625 L318.746094,170 L322.777344,170 L327.195312,153.089844 L322.765625,153.089844 L320.550781,164.304688 L320.339844,164.304688 L317.539062,153.089844 L314.09375,153.089844 L311.386719,164.304688 L311.175781,164.304688 L308.925781,153.089844 L304.460938,153.089844 L308.878906,170 L312.933594,170 L315.710938,159.640625 Z M345.523438,170 L345.523438,153.089844 L341.234375,153.089844 L341.234375,159.722656 L334.496094,159.722656 L334.496094,153.089844 L330.195312,153.089844 L330.195312,170 L334.496094,170 L334.496094,163.179688 L341.234375,163.179688 L341.234375,170 L345.523438,170 Z M360.300781,170 L359.246094,166.285156 L353.726562,166.285156 L352.636719,170 L348.371094,170 L354.042969,153.089844 L359.304688,153.089844 L364.988281,170 L360.300781,170 Z M356.398438,156.898438 L354.546875,163.191406 L358.4375,163.191406 L356.621094,156.898438 L356.398438,156.898438 Z M376.0625,170 L376.0625,156.546875 L380.949219,156.546875 L380.949219,153.089844 L366.898438,153.089844 L366.898438,156.546875 L371.773438,156.546875 L371.773438,170 L376.0625,170 Z M398.128906,170 L398.128906,156.546875 L403.015625,156.546875 L403.015625,153.089844 L388.964844,153.089844 L388.964844,156.546875 L393.839844,156.546875 L393.839844,170 L398.128906,170 Z M413.621094,152.632812 C418.707031,152.632812 421.941406,156.042969 421.941406,161.539062 C421.941406,167.046875 418.707031,170.457031 413.621094,170.457031 C408.511719,170.457031 405.277344,167.046875 405.277344,161.539062 C405.277344,156.042969 408.546875,152.632812 413.621094,152.632812 Z M413.621094,156.195312 C411.242188,156.195312 409.660156,158.28125 409.660156,161.539062 C409.660156,164.808594 411.21875,166.894531 413.621094,166.894531 C416,166.894531 417.570312,164.808594 417.570312,161.539062 C417.570312,158.28125 415.988281,156.195312 413.621094,156.195312 Z M176.070312,192 L176.070312,182.390625 L176.292969,182.390625 L183.359375,192 L186.769531,192 L186.769531,175.089844 L182.691406,175.089844 L182.691406,184.605469 L182.46875,184.605469 L175.425781,175.089844 L171.992188,175.089844 L171.992188,192 L176.070312,192 Z M201.546875,192 L200.492188,188.285156 L194.972656,188.285156 L193.882812,192 L189.617188,192 L195.289062,175.089844 L200.550781,175.089844 L206.234375,192 L201.546875,192 Z M197.644531,178.898438 L195.792969,185.191406 L199.683594,185.191406 L197.867188,178.898438 L197.644531,178.898438 Z M227.632812,192 L227.632812,175.089844 L222.558594,175.089844 L218.46875,185.425781 L218.246094,185.425781 L214.144531,175.089844 L209.070312,175.089844 L209.070312,192 L213.042969,192 L213.042969,181.324219 L213.253906,181.324219 L217.027344,190.699219 L219.6875,190.699219 L223.449219,181.324219 L223.660156,181.324219 L223.660156,192 L227.632812,192 Z M243.207031,188.542969 L235.917969,188.542969 L235.917969,185.085938 L242.773438,185.085938 L242.773438,181.921875 L235.917969,181.921875 L235.917969,178.546875 L243.207031,178.546875 L243.207031,175.089844 L231.617188,175.089844 L231.617188,192 L243.207031,192 L243.207031,188.542969 Z M260.996094,192 L260.996094,178.546875 L265.882812,178.546875 L265.882812,175.089844 L251.832031,175.089844 L251.832031,178.546875 L256.707031,178.546875 L256.707031,192 L260.996094,192 Z M284.269531,192 L284.269531,175.089844 L279.980469,175.089844 L279.980469,181.722656 L273.242188,181.722656 L273.242188,175.089844 L268.941406,175.089844 L268.941406,192 L273.242188,192 L273.242188,185.179688 L279.980469,185.179688 L279.980469,192 L284.269531,192 Z M292.554688,192 L292.554688,175.089844 L288.253906,175.089844 L288.253906,192 L292.554688,192 Z M295.800781,187.183594 C295.871094,190.441406 298.566406,192.457031 302.84375,192.457031 C307.273438,192.457031 309.96875,190.324219 309.96875,186.796875 C309.96875,184.113281 308.46875,182.601562 305.128906,181.957031 L302.949219,181.535156 C301.167969,181.183594 300.417969,180.644531 300.417969,179.71875 C300.417969,178.59375 301.414062,177.878906 302.925781,177.878906 C304.4375,177.878906 305.574219,178.710938 305.667969,179.90625 L309.640625,179.90625 C309.570312,176.777344 306.828125,174.632812 302.867188,174.632812 C298.789062,174.632812 296.140625,176.800781 296.140625,180.105469 C296.140625,182.765625 297.734375,184.453125 300.828125,185.039062 L303.054688,185.484375 C304.988281,185.871094 305.726562,186.375 305.726562,187.3125 C305.726562,188.425781 304.625,189.199219 303.019531,189.199219 C301.238281,189.199219 300.007812,188.414062 299.902344,187.183594 L295.800781,187.183594 Z M337.660156,192 L337.660156,175.089844 L332.585938,175.089844 L328.496094,185.425781 L328.273438,185.425781 L324.171875,175.089844 L319.097656,175.089844 L319.097656,192 L323.070312,192 L323.070312,181.324219 L323.28125,181.324219 L327.054688,190.699219 L329.714844,190.699219 L333.476562,181.324219 L333.6875,181.324219 L333.6875,192 L337.660156,192 Z M356.855469,184.957031 L356.855469,182.777344 L349.613281,182.777344 L349.613281,185.730469 L352.707031,185.730469 L352.695312,186.011719 C352.589844,187.722656 351.230469,188.871094 349.273438,188.871094 C346.8125,188.871094 345.230469,186.832031 345.230469,183.480469 C345.230469,180.1875 346.660156,178.21875 349.0625,178.21875 C350.75,178.21875 352.015625,179.121094 352.4375,180.609375 L356.679688,180.609375 C356.257812,177.035156 353.1875,174.632812 349.0625,174.632812 C343.988281,174.632812 340.847656,178.03125 340.847656,183.527344 C340.847656,189.09375 343.976562,192.457031 349.179688,192.457031 C353.960938,192.457031 356.855469,189.609375 356.855469,184.957031 Z M378.628906,192 L378.628906,175.089844 L373.554688,175.089844 L369.464844,185.425781 L369.242188,185.425781 L365.140625,175.089844 L360.066406,175.089844 L360.066406,192 L364.039062,192 L364.039062,181.324219 L364.25,181.324219 L368.023438,190.699219 L370.683594,190.699219 L374.445312,181.324219 L374.65625,181.324219 L374.65625,192 L378.628906,192 Z M390.851562,192 L390.851562,178.546875 L395.738281,178.546875 L395.738281,175.089844 L381.6875,175.089844 L381.6875,178.546875 L386.5625,178.546875 L386.5625,192 L390.851562,192 Z" id="NOT-SURE-WHAT-TO-NAM"></path>
        </g>
    </g>
</svg>
