
<svg width="145px" height="41px" viewBox="0 0 145 41" version="1.1" xmlns="http://www.w3.org/2000/svg" xmlns:xlink="http://www.w3.org/1999/xlink">
    <!-- Generator: Sketch 44.1 (41455) - http://www.bohemiancoding.com/sketch -->
    <desc>Created with Sketch.</desc>
    <defs></defs>
    <g id="Page-1" stroke="none" stroke-width="1" fill="none" fill-rule="evenodd">
        <g id="Desktop-HD" transform="translate(-171.000000, -74.000000)" fill="#000000">
            <g id="Group-2" transform="translate(170.000000, 72.000000)">
                <path d="M9.5390625,2.6328125 C14.625,2.6328125 17.859375,6.04296875 17.859375,11.5390625 C17.859375,17.046875 14.625,20.4570312 9.5390625,20.4570312 C4.4296875,20.4570312 1.1953125,17.046875 1.1953125,11.5390625 C1.1953125,6.04296875 4.46484375,2.6328125 9.5390625,2.6328125 Z M9.5390625,6.1953125 C7.16015625,6.1953125 5.578125,8.28125 5.578125,11.5390625 C5.578125,14.8085938 7.13671875,16.8945312 9.5390625,16.8945312 C11.9179688,16.8945312 13.4882812,14.8085938 13.4882812,11.5390625 C13.4882812,8.28125 11.90625,6.1953125 9.5390625,6.1953125 Z M25.3476562,6.3359375 L25.3476562,11.046875 L27.890625,11.046875 C29.4726562,11.046875 30.4101562,10.1679688 30.4101562,8.703125 C30.4101562,7.26171875 29.4140625,6.3359375 27.8789062,6.3359375 L25.3476562,6.3359375 Z M25.3476562,14.0820312 L25.3476562,20 L21.046875,20 L21.046875,3.08984375 L28.4882812,3.08984375 C32.4375,3.08984375 34.8046875,5.17578125 34.8046875,8.66796875 C34.8046875,10.7421875 33.7734375,12.640625 31.921875,13.4492188 L35.296875,20 L30.46875,20 L27.5742188,14.0820312 L25.3476562,14.0820312 Z M46.4648438,20 L46.4648438,6.546875 L51.3515625,6.546875 L51.3515625,3.08984375 L37.3007812,3.08984375 L37.3007812,6.546875 L42.1757812,6.546875 L42.1757812,20 L46.4648438,20 Z M69.7382812,20 L69.7382812,3.08984375 L65.4492188,3.08984375 L65.4492188,9.72265625 L58.7109375,9.72265625 L58.7109375,3.08984375 L54.4101562,3.08984375 L54.4101562,20 L58.7109375,20 L58.7109375,13.1796875 L65.4492188,13.1796875 L65.4492188,20 L69.7382812,20 Z M81.2695312,2.6328125 C86.3554688,2.6328125 89.5898438,6.04296875 89.5898438,11.5390625 C89.5898438,17.046875 86.3554688,20.4570312 81.2695312,20.4570312 C76.1601562,20.4570312 72.9257812,17.046875 72.9257812,11.5390625 C72.9257812,6.04296875 76.1953125,2.6328125 81.2695312,2.6328125 Z M81.2695312,6.1953125 C78.890625,6.1953125 77.3085938,8.28125 77.3085938,11.5390625 C77.3085938,14.8085938 78.8671875,16.8945312 81.2695312,16.8945312 C83.6484375,16.8945312 85.21875,14.8085938 85.21875,11.5390625 C85.21875,8.28125 83.6367188,6.1953125 81.2695312,6.1953125 Z M92.7773438,3.078125 L99.8789062,3.078125 C104.917969,3.078125 107.789062,6.08984375 107.789062,11.375 C107.789062,16.9296875 104.964844,20 99.8789062,20 L92.7773438,20 L92.7773438,3.078125 Z M97.078125,6.53515625 L97.078125,16.5429688 L99.1054688,16.5429688 C101.894531,16.5429688 103.40625,14.8085938 103.40625,11.4570312 C103.40625,8.3046875 101.8125,6.53515625 99.1054688,6.53515625 L97.078125,6.53515625 Z M118.523438,2.6328125 C123.609375,2.6328125 126.84375,6.04296875 126.84375,11.5390625 C126.84375,17.046875 123.609375,20.4570312 118.523438,20.4570312 C113.414062,20.4570312 110.179688,17.046875 110.179688,11.5390625 C110.179688,6.04296875 113.449219,2.6328125 118.523438,2.6328125 Z M118.523438,6.1953125 C116.144531,6.1953125 114.5625,8.28125 114.5625,11.5390625 C114.5625,14.8085938 116.121094,16.8945312 118.523438,16.8945312 C120.902344,16.8945312 122.472656,14.8085938 122.472656,11.5390625 C122.472656,8.28125 120.890625,6.1953125 118.523438,6.1953125 Z M129.058594,20 L133.628906,20 L136.863281,14.6445312 L137.085938,14.6445312 L140.296875,20 L145.136719,20 L139.78125,11.515625 L145.183594,3.08984375 L140.402344,3.08984375 L137.34375,8.69140625 L137.121094,8.69140625 L134.085938,3.08984375 L129.070312,3.08984375 L134.25,11.46875 L129.058594,20 Z M20.5546875,42 L20.5546875,25.0898438 L15.4804688,25.0898438 L11.390625,35.4257812 L11.1679688,35.4257812 L7.06640625,25.0898438 L1.9921875,25.0898438 L1.9921875,42 L5.96484375,42 L5.96484375,31.3242188 L6.17578125,31.3242188 L9.94921875,40.6992188 L12.609375,40.6992188 L16.3710938,31.3242188 L16.5820312,31.3242188 L16.5820312,42 L20.5546875,42 Z M39.75,34.9570312 L39.75,32.7773438 L32.5078125,32.7773438 L32.5078125,35.7304688 L35.6015625,35.7304688 L35.5898438,36.0117188 C35.484375,37.7226562 34.125,38.8710938 32.1679688,38.8710938 C29.7070312,38.8710938 28.125,36.8320312 28.125,33.4804688 C28.125,30.1875 29.5546875,28.21875 31.9570312,28.21875 C33.6445312,28.21875 34.9101562,29.1210938 35.3320312,30.609375 L39.5742188,30.609375 C39.1523438,27.0351562 36.0820312,24.6328125 31.9570312,24.6328125 C26.8828125,24.6328125 23.7421875,28.03125 23.7421875,33.5273438 C23.7421875,39.09375 26.8710938,42.4570312 32.0742188,42.4570312 C36.8554688,42.4570312 39.75,39.609375 39.75,34.9570312 Z M61.5234375,42 L61.5234375,25.0898438 L56.4492188,25.0898438 L52.359375,35.4257812 L52.1367188,35.4257812 L48.0351562,25.0898438 L42.9609375,25.0898438 L42.9609375,42 L46.9335938,42 L46.9335938,31.3242188 L47.1445312,31.3242188 L50.9179688,40.6992188 L53.578125,40.6992188 L57.3398438,31.3242188 L57.5507812,31.3242188 L57.5507812,42 L61.5234375,42 Z M73.7460938,42 L73.7460938,28.546875 L78.6328125,28.546875 L78.6328125,25.0898438 L64.5820312,25.0898438 L64.5820312,28.546875 L69.4570312,28.546875 L69.4570312,42 L73.7460938,42 Z" id="ORTHODOX-MGMT"></path>
            </g>
        </g>
    </g>
</svg>